<?xml version="1.0" encoding="utf-8"?>
<svg viewBox="0 0 28 28" xmlns="http://www.w3.org/2000/svg">
  <g transform="matrix(1, 0, 0, 1, 6.00021, 6.00021)" fill="#000000" stroke="none" stroke-width="1" fill-rule="evenodd">
    <path d="M5.86003068,-0.000210280527 C7.28653671,-0.000210280527 8.71304273,-0.000210280527 10.1588259,-0.000210280527 C10.1588259,1.94677767 10.1588259,3.91304273 10.1588259,5.86003068 C12.1058138,5.86003068 14.0528018,5.86003068 15.9997897,5.86003068 C15.9997897,7.28653671 15.9997897,8.71304273 15.9997897,10.1588259 C14.0528018,10.1588259 12.1058138,10.1588259 10.1588259,10.1588259 C10.1588259,12.1058138 10.1588259,14.0528018 10.1588259,15.9997897 C8.71304273,15.9997897 7.28653671,15.9997897 5.86003068,15.9997897 C5.86003068,14.0528018 5.86003068,12.1058138 5.86003068,10.1588259 C3.91304273,10.1588259 1.94677767,10.1588259 -0.000210280527,10.1588259 C-0.000210280527,8.71304273 -0.000210280527,7.28653671 -0.000210280527,5.86003068 C1.94677767,5.86003068 3.91304273,5.86003068 5.86003068,5.86003068 C5.86003068,3.91304273 5.86003068,1.94677767 5.86003068,-0.000210280527 Z" id="Colour"/>
  </g>
</svg>